<svg width="253" height="253" viewBox="0 0 253 253" fill="none" xmlns="http://www.w3.org/2000/svg">
<circle cx="126.5" cy="126.5" r="108" stroke="white" stroke-width="3"/>
<circle cx="126.5" cy="126.5" r="124" stroke="white" stroke-width="5"/>
<g clip-path="url(#clip0_13_25)">
<path d="M126.5 48C131.865 48 136.2 52.357 136.2 57.75V68.6273C136.685 68.6883 137.14 68.7492 137.625 68.8406C137.746 68.8711 137.837 68.8711 137.958 68.9016L152.508 71.5828C157.782 72.5578 161.268 77.6461 160.298 82.9172C159.328 88.1883 154.266 91.7227 149.022 90.7477L134.624 88.0969C125.136 86.6953 116.77 87.6398 110.889 89.9859C105.008 92.332 102.644 95.5617 102.098 98.5477C101.492 101.808 101.947 103.636 102.462 104.763C103.008 105.952 104.129 107.292 106.342 108.785C111.283 112.045 118.861 114.178 128.682 116.798L129.562 117.042C138.231 119.358 148.84 122.161 156.722 127.341C161.026 130.174 165.088 134.013 167.604 139.376C170.18 144.83 170.726 150.923 169.544 157.413C167.452 168.991 159.51 176.73 149.659 180.783C145.506 182.489 140.989 183.586 136.2 184.134V194.311C136.2 199.704 131.865 204.061 126.5 204.061C121.135 204.061 116.8 199.704 116.8 194.311V183.677C116.679 183.647 116.527 183.647 116.406 183.616H116.345C108.949 182.459 96.7937 179.259 88.6094 175.603C83.729 173.409 81.5162 167.651 83.6987 162.745C85.8812 157.84 91.6103 155.616 96.4906 157.809C102.826 160.643 113.253 163.446 119.286 164.391C128.955 165.823 136.927 165 142.323 162.776C147.446 160.673 149.78 157.627 150.447 153.97C151.023 150.741 150.568 148.882 150.053 147.755C149.477 146.536 148.355 145.195 146.112 143.702C141.141 140.442 133.532 138.309 123.681 135.689L122.832 135.476C114.193 133.099 103.584 130.266 95.7025 125.086C91.3981 122.252 87.3665 118.383 84.8506 113.02C82.3044 107.566 81.789 101.473 83.0015 94.9828C85.184 83.3438 93.8534 75.7875 103.705 71.857C107.737 70.2422 112.162 69.1453 116.8 68.5055V57.75C116.8 52.357 121.135 48 126.5 48Z" fill="white"/>
</g>
<defs>
<clipPath id="clip0_13_25">
<rect width="97" height="156" fill="white" transform="translate(78 48)"/>
</clipPath>
</defs>
</svg>
