<svg width="125" height="96" viewBox="0 0 125 96" fill="none" xmlns="http://www.w3.org/2000/svg">
<path d="M14.4285 51.1378C14.7457 51.1378 15.0175 47.3728 15.3347 47.3728C15.6518 47.3728 15.9237 43.7044 16.2408 43.7044C16.5579 43.7044 16.8298 47.2258 17.1469 47.2258C17.4641 47.2258 17.7359 44.8295 18.0531 44.8295C18.3702 44.8295 18.6421 46.9387 18.9592 46.9387C19.2764 46.9387 19.5482 46.9978 19.8653 46.9978C20.1825 46.9978 20.4543 50.3481 20.7715 50.3481C21.0886 50.3481 21.3605 54.4885 21.6776 54.4885C21.9948 54.4885 22.2666 53.1759 22.5838 53.1759C22.9009 53.1759 23.1727 49.5592 23.4899 49.5592C23.807 49.5592 24.0789 45.5042 24.396 45.5042C24.7132 45.5042 24.985 41.7983 25.3022 41.7983C25.6193 41.7983 25.8912 37.6941 26.2083 37.6941C26.5254 37.6941 26.7973 33.9013 27.1144 33.9013C27.4316 33.9013 27.7034 29.3109 28.0206 29.3109C28.3377 29.3109 28.6096 34.4083 28.9267 34.4083C29.2439 34.4083 29.5157 30.3406 29.8328 30.3406C30.15 30.3406 30.4218 32.9081 30.739 32.9081C31.0561 32.9081 31.328 37.7792 31.6451 37.7792C31.9623 37.7792 32.2341 35.738 32.5513 35.738C32.8684 35.738 33.1402 31.4425 33.4574 31.4425C33.7745 31.4425 34.0464 35.6284 34.3635 35.6284C34.6807 35.6284 34.9525 31.6976 35.2697 31.6976C35.5868 31.6976 35.8587 30.0614 36.1758 30.0614C36.4929 30.0614 36.7648 34.3224 37.0819 34.3224C37.3991 34.3224 37.6709 35.6967 37.9881 35.6967C38.3052 35.6967 38.5771 40.9935 38.8942 40.9935C39.2114 40.9935 39.4832 36.3997 39.8003 36.3997C40.1175 36.3997 40.3893 31.6508 40.7065 31.6508C41.0236 31.6508 41.2955 26.3911 41.6126 26.3911C41.9298 26.3911 42.2016 29.1215 42.5188 29.1215C42.8359 29.1215 43.1077 26.6035 43.4249 26.6035C43.742 26.6035 44.0139 27.1469 44.331 27.1469C44.6482 27.1469 44.92 32.4902 45.2372 32.4902C45.5543 32.4902 45.8262 34.1974 46.1433 34.1974C46.4604 34.1974 46.7323 36.4707 47.0494 36.4707C47.3666 36.4707 47.6384 40.6583 47.9556 40.6583C48.2727 40.6583 48.5446 43.2981 48.8617 43.2981C49.1789 43.2981 49.4507 48.3885 49.7678 48.3885C50.085 48.3885 50.3568 47.9905 50.674 47.9905C50.9911 47.9905 51.263 52.1788 51.5801 52.1788C51.8973 52.1788 52.1691 50.5713 52.4863 50.5713C52.8034 50.5713 53.0752 50.5475 53.3924 50.5475C53.7095 50.5475 53.9814 53.4795 54.2985 53.4795C54.6157 53.4795 54.8875 56.0051 55.2047 56.0051C55.5218 56.0051 55.7937 56.3752 56.1108 56.3752C56.4279 56.3752 56.6998 61.067 57.0169 61.067C57.3341 61.067 57.6059 64.8878 57.9231 64.8878C58.2402 64.8878 58.5121 69.7051 58.8292 69.7051C59.1464 69.7051 59.4182 69.316 59.7353 69.316C60.0525 69.316 60.3243 71.1078 60.6415 71.1078C60.9586 71.1078 61.2305 67.5051 61.5476 67.5051C61.8648 67.5051 62.1366 63.331 62.4538 63.331C62.7709 63.331 63.0427 60.1952 63.3599 60.1952C63.677 60.1952 63.9489 60.5803 64.266 60.5803C64.5832 60.5803 64.855 57.2434 65.1722 57.2434C65.4893 57.2434 65.7612 58.9082 66.0783 58.9082C66.3954 58.9082 66.6673 63.5293 66.9844 63.5293C67.3016 63.5293 67.5734 62.286 67.8906 62.286C68.2077 62.286 68.4796 65.8773 68.7967 65.8773C69.1139 65.8773 69.3857 64.2008 69.7028 64.2008C70.02 64.2008 70.2918 63.9594 70.609 63.9594C70.9261 63.9594 71.198 65.3323 71.5151 65.3323C71.8323 65.3323 72.1041 70.5527 72.4213 70.5527C72.7384 70.5527 73.0102 67.7952 73.3274 67.7952C73.6445 67.7952 73.9164 67.9793 74.2335 67.9793C74.5507 67.9793 74.8225 68.7169 75.1397 68.7169C75.4568 68.7169 75.7286 63.5334 76.0458 63.5334C76.3629 63.5334 76.6348 59.7944 76.9519 59.7944C77.2691 59.7944 77.5409 63.288 77.8581 63.288C78.1752 63.288 78.4471 58.3307 78.7642 58.3307C79.0814 58.3307 79.3532 60.4607 79.6703 60.4607C79.9875 60.4607 80.2593 59.717 80.5765 59.717C80.8936 59.717 81.1655 57.854 81.4826 57.854C81.7998 57.854 82.0716 53.7452 82.3888 53.7452C82.7059 53.7452 82.9777 58.5098 83.2949 58.5098C83.612 58.5098 83.8839 63.6462 84.201 63.6462C84.5182 63.6462 84.79 62.8787 85.1072 62.8787C85.4243 62.8787 85.6961 61.1704 86.0133 61.1704C86.3304 61.1704 86.6023 57.5401 86.9194 57.5401C87.2366 57.5401 87.5084 59.9832 87.8256 59.9832C88.1427 59.9832 88.4146 56.3636 88.7317 56.3636C89.0489 56.3636 89.3207 60.7829 89.6378 60.7829C89.955 60.7829 90.2268 64.9241 90.544 64.9241C90.8611 64.9241 91.133 63.4252 91.4501 63.4252C91.7673 63.4252 92.0391 64.6246 92.3563 64.6246C92.6734 64.6246 92.9452 64.5475 93.2624 64.5475C93.5795 64.5475 93.8514 66.0986 94.1685 66.0986C94.4857 66.0986 94.7575 69.4971 95.0747 69.4971C95.3918 69.4971 95.6637 69.2185 95.9808 69.2185C96.2979 69.2185 96.5698 71.0925 96.8869 71.0925C97.2041 71.0925 97.4759 75.471 97.7931 75.471C98.1102 75.471 98.3821 76.9819 98.6992 76.9819C99.0164 76.9819 99.2882 82.3933 99.6053 82.3933C99.9225 82.3933 100.194 77.0013 100.511 77.0013C100.829 77.0013 101.1 76.2127 101.418 76.2127C101.735 76.2127 102.007 71.5228 102.324 71.5228C102.641 71.5228 102.913 69.6209 103.23 69.6209C103.547 69.6209 103.819 70.2534 104.136 70.2534C104.453 70.2534 104.725 75.3115 105.042 75.3115C105.359 75.3115 105.631 79.7023 105.948 79.7023C106.265 79.7023 106.537 78.2494 106.854 78.2494C107.172 78.2494 107.443 80.5262 107.761 80.5262C108.078 80.5262 108.35 79.7915 108.667 79.7915C108.984 79.7915 109.256 78.3225 109.573 78.3225C109.89 78.3225 110.162 75.1155 110.479 75.1155C110.796 75.1155 111.068 72.8149 111.385 72.8149C111.702 72.8149 111.974 69.3682 112.291 69.3682C112.608 69.3682 112.88 70.5768 113.197 70.5768C113.515 70.5768 113.786 66.2546 114.104 66.2546C114.421 66.2546 114.693 68.7009 115.01 68.7009C115.327 68.7009 115.599 63.5145 115.916 63.5145C116.233 63.5145 116.505 64.8888 116.822 64.8888C117.139 64.8888 117.411 64.8951 117.728 64.8951C118.045 64.8951 118.317 68.6243 118.634 68.6243C118.951 68.6243 119.223 63.8315 119.54 63.8315C119.857 63.8315 120.129 61.8532 120.446 61.8532C120.764 61.8532 121.035 62.6526 121.353 62.6526C121.67 62.6526 121.942 62.7603 122.259 62.7603" stroke="#FBFBFB" stroke-width="4"/>
</svg>
