<svg width="47" height="47" viewBox="0 0 47 47" fill="none" xmlns="http://www.w3.org/2000/svg">
<path d="M23.5 3.91666C12.6841 3.91666 3.91669 12.6841 3.91669 23.5C3.91669 34.3159 12.6841 43.0833 23.5 43.0833C34.3159 43.0833 43.0834 34.3159 43.0834 23.5C43.0834 12.6841 34.3159 3.91666 23.5 3.91666Z" fill="url(#paint0_linear_10_51)"/>
<path d="M26.1506 28.6906H31.2188L32.0148 23.5421H26.1506V20.728C26.1506 18.5895 26.8497 16.6928 28.8502 16.6928H32.0648V12.2004C31.4998 12.124 30.3052 11.9576 28.0482 11.9576C23.3345 11.9576 20.5713 14.4466 20.5713 20.118V23.5431H15.7254V28.6915H20.5703V42.8425C21.5299 42.9854 22.5022 43.0833 23.5 43.0833C24.4018 43.0833 25.2821 43.0011 26.1506 42.8836V28.6906Z" fill="white"/>
<defs>
<linearGradient id="paint0_linear_10_51" x1="9.78483" y1="9.7848" x2="39.7689" y2="39.7688" gradientUnits="userSpaceOnUse">
<stop stop-color="#2AA4F4"/>
<stop offset="1" stop-color="#007AD9"/>
</linearGradient>
</defs>
</svg>
