<svg width="47" height="47" viewBox="0 0 47 47" fill="none" xmlns="http://www.w3.org/2000/svg">
<path d="M42.7024 19.6646H41.125V19.5833H23.5V27.4167H34.5675C32.9529 31.9766 28.6142 35.25 23.5 35.25C17.0111 35.25 11.75 29.9889 11.75 23.5C11.75 17.0111 17.0111 11.75 23.5 11.75C26.4953 11.75 29.2203 12.8799 31.2951 14.7257L36.8343 9.18653C33.3367 5.92689 28.6582 3.91666 23.5 3.91666C12.6851 3.91666 3.91666 12.6851 3.91666 23.5C3.91666 34.3149 12.6851 43.0833 23.5 43.0833C34.3149 43.0833 43.0833 34.3149 43.0833 23.5C43.0833 22.1869 42.9482 20.9052 42.7024 19.6646Z" fill="#FFC107"/>
<path d="M6.17462 14.3849L12.6087 19.1035C14.3497 14.7932 18.566 11.75 23.5 11.75C26.4953 11.75 29.2203 12.8799 31.2951 14.7257L36.8343 9.18653C33.3367 5.92689 28.6582 3.91666 23.5 3.91666C15.978 3.91666 9.45483 8.1633 6.17462 14.3849Z" fill="#FF3D00"/>
<path d="M23.5 43.0833C28.5584 43.0833 33.1546 41.1475 36.6297 37.9995L30.5686 32.8706C28.6024 34.3599 26.1584 35.25 23.5 35.25C18.4064 35.25 14.0814 32.0021 12.4521 27.4695L6.06595 32.3899C9.30699 38.7319 15.8889 43.0833 23.5 43.0833Z" fill="#4CAF50"/>
<path d="M42.7024 19.6646H41.125V19.5833H23.5V27.4167H34.5675C33.792 29.6071 32.383 31.4959 30.5657 32.8716L30.5686 32.8697L36.6296 37.9985C36.2008 38.3882 43.0833 33.2917 43.0833 23.5C43.0833 22.1869 42.9482 20.9052 42.7024 19.6646Z" fill="#1976D2"/>
</svg>
