<svg width="47" height="47" viewBox="0 0 47 47" fill="none" xmlns="http://www.w3.org/2000/svg">
<path d="M41.8557 32.665C40.8423 34.9159 40.3539 35.922 39.0504 37.9084C37.2255 40.6844 34.6515 44.1506 31.4716 44.1727C28.6406 44.1984 27.9099 42.3257 24.0655 42.3588C20.2247 42.3771 19.4242 44.2094 16.5895 44.18C13.406 44.1506 10.9716 41.0295 9.14665 38.2573C4.04274 30.4839 3.50298 21.3703 6.65712 16.5234C8.88962 13.0866 12.4183 11.067 15.734 11.067C19.1121 11.067 21.2345 12.9213 24.0251 12.9213C26.7349 12.9213 28.3836 11.0634 32.2905 11.0634C35.2427 11.0634 38.3638 12.6716 40.5963 15.4476C33.2966 19.4499 34.4826 29.8744 41.8557 32.665ZM29.3236 7.96063C30.7446 6.13571 31.8242 3.56172 31.4313 0.940002C29.1143 1.09789 26.4045 2.57766 24.8219 4.49438C23.3862 6.24219 22.1965 8.83453 22.6591 11.3424C25.1891 11.4232 27.8071 9.91407 29.3236 7.96063Z" fill="black"/>
</svg>
